<?xml version="1.0" encoding="UTF-8" standalone="no"?>
<svg
   width="1128.38"
   height="500"
   viewBox="-314.19001 -7.9599991 1128.38 500"
   preserveAspectRatio="xMidYMid"
   version="1.1"
   id="svg77"
   sodipodi:docname="name_cs.svg"
   inkscape:version="1.1.2 (b8e25be833, 2022-02-05)"
   xmlns:inkscape="http://www.inkscape.org/namespaces/inkscape"
   xmlns:sodipodi="http://sodipodi.sourceforge.net/DTD/sodipodi-0.dtd"
   xmlns:xlink="http://www.w3.org/1999/xlink"
   xmlns="http://www.w3.org/2000/svg"
   xmlns:svg="http://www.w3.org/2000/svg">
  <sodipodi:namedview
     id="namedview79"
     pagecolor="#ffffff"
     bordercolor="#cccccc"
     borderopacity="1"
     inkscape:pageshadow="0"
     inkscape:pageopacity="1"
     inkscape:pagecheckerboard="0"
     showgrid="false"
     height="200px"
     inkscape:zoom="1.3472883"
     inkscape:cx="493.21292"
     inkscape:cy="253.4721"
     inkscape:window-width="1920"
     inkscape:window-height="991"
     inkscape:window-x="-9"
     inkscape:window-y="-9"
     inkscape:window-maximized="1"
     inkscape:current-layer="svg77" />
  <defs
     id="defs67">
    <linearGradient
       id="linearGradient2870"
       inkscape:swatch="gradient">
      <stop
         style="stop-color:#e6bd2e;stop-opacity:1;"
         offset="0"
         id="stop2866" />
      <stop
         style="stop-color:#e6bd2e;stop-opacity:0;"
         offset="1"
         id="stop2868" />
    </linearGradient>
    <linearGradient
       id="linearGradient2862"
       inkscape:swatch="gradient">
      <stop
         style="stop-color:#2627bf;stop-opacity:1;"
         offset="0"
         id="stop2858" />
      <stop
         style="stop-color:#2627bf;stop-opacity:0;"
         offset="1"
         id="stop2860" />
    </linearGradient>
    <linearGradient
       id="linearGradient2854"
       inkscape:swatch="gradient">
      <stop
         style="stop-color:#26bf2f;stop-opacity:1;"
         offset="0"
         id="stop2850" />
      <stop
         style="stop-color:#26bf2f;stop-opacity:0;"
         offset="1"
         id="stop2852" />
    </linearGradient>
    <linearGradient
       id="linearGradient2846"
       inkscape:swatch="gradient">
      <stop
         style="stop-color:#ff3274;stop-opacity:1;"
         offset="0"
         id="stop2842" />
      <stop
         style="stop-color:#ff3274;stop-opacity:0;"
         offset="1"
         id="stop2844" />
    </linearGradient>
    <filter
       id="editing-cake"
       x="-0.032837863"
       y="-0.39007092"
       width="1.0656757"
       height="1.9869976">
      <feFlood
         flood-color="#0b002d"
         result="flood-shadow"
         id="feFlood2" />
      <feFlood
         flood-color="rgba(17.43373544730392%,9.803921568627446%,53.72549019607844%,0.168)"
         id="feFlood4" />
      <feComposite
         operator="in"
         in2="SourceAlpha"
         id="feComposite6" />
      <feConvolveMatrix
         order="7,10"
         divisor="1"
         result="conv"
         kernelMatrix="0 0 0 1 0 0 0 0 0 1 0 1 0 0 0 0 1 0 1 0 0 0 1 0 0 0 1 0 0 1 0 0 0 1 0 0 1 0 0 0 1 0 1 0 0 0 0 0 1 1 0 0 0 0 0 1 0 1 1 0 1 1 0 0 0 0 1 0 0 0 "
         id="feConvolveMatrix8" />
      <feGaussianBlur
         stdDeviation="0.5"
         id="feGaussianBlur10" />
      <feOffset
         dy="4"
         result="offset"
         id="feOffset12" />
      <feComposite
         operator="in"
         in="flood-shadow"
         in2="offset"
         id="feComposite14" />
      <feGaussianBlur
         stdDeviation="4"
         id="feGaussianBlur16" />
      <feComponentTransfer
         id="feComponentTransfer20">
        <feFuncA
           type="linear"
           slope="0.7"
           intercept="-0.2"
           id="feFuncA18" />
      </feComponentTransfer>
      <feOffset
         dy="4"
         result="shadow"
         id="feOffset22" />
      <feGaussianBlur
         in="SourceGraphic"
         stdDeviation="0.5"
         id="feGaussianBlur24" />
      <feOffset
         dy="0"
         result="x0"
         id="feOffset26" />
      <feGaussianBlur
         in="SourceGraphic"
         stdDeviation="1"
         id="feGaussianBlur28" />
      <feComponentTransfer
         id="feComponentTransfer32">
        <feFuncA
           type="linear"
           slope="0.8"
           intercept="-.01"
           id="feFuncA30" />
      </feComponentTransfer>
      <feOffset
         dy="1"
         result="x1"
         id="feOffset34" />
      <feGaussianBlur
         in="SourceGraphic"
         stdDeviation="2"
         id="feGaussianBlur36" />
      <feComponentTransfer
         id="feComponentTransfer40">
        <feFuncA
           type="linear"
           slope="0.7"
           intercept="-.01"
           id="feFuncA38" />
      </feComponentTransfer>
      <feOffset
         dy="2"
         result="x2"
         id="feOffset42" />
      <feGaussianBlur
         in="SourceGraphic"
         stdDeviation="3"
         id="feGaussianBlur44" />
      <feComponentTransfer
         id="feComponentTransfer48">
        <feFuncA
           type="linear"
           slope="0.6"
           intercept="-.01"
           id="feFuncA46" />
      </feComponentTransfer>
      <feOffset
         dy="3"
         result="x3"
         id="feOffset50" />
      <feMerge
         id="feMerge64">
        <feMergeNode
           in="shadow"
           id="feMergeNode52" />
        <feMergeNode
           in="offset"
           id="feMergeNode54" />
        <feMergeNode
           in="x3"
           id="feMergeNode56" />
        <feMergeNode
           in="x2"
           id="feMergeNode58" />
        <feMergeNode
           in="x1"
           id="feMergeNode60" />
        <feMergeNode
           in="x0"
           id="feMergeNode62" />
      </feMerge>
    </filter>
    <linearGradient
       inkscape:collect="always"
       xlink:href="#linearGradient2846"
       id="linearGradient2901"
       x1="-46.352048"
       y1="194.06958"
       x2="38.659839"
       y2="194.06958"
       gradientUnits="userSpaceOnUse" />
    <linearGradient
       inkscape:collect="always"
       xlink:href="#linearGradient2854"
       id="linearGradient2903"
       x1="149.91376"
       y1="122.57449"
       x2="245.80374"
       y2="122.57449"
       gradientUnits="userSpaceOnUse" />
    <linearGradient
       inkscape:collect="always"
       xlink:href="#linearGradient2862"
       id="linearGradient2905"
       x1="295.58698"
       y1="149.69586"
       x2="380.59887"
       y2="149.69586"
       gradientUnits="userSpaceOnUse"
       gradientTransform="translate(-0.91311286,-2.6781332)" />
    <linearGradient
       inkscape:collect="always"
       xlink:href="#linearGradient2870"
       id="linearGradient2907"
       x1="432.65451"
       y1="58.832897"
       x2="527.70773"
       y2="58.832897"
       gradientUnits="userSpaceOnUse" />
  </defs>
  <path
     style="fill:none;stroke:#427677;stroke-width:3.7;stroke-linecap:butt;stroke-linejoin:miter;stroke-miterlimit:4;stroke-dasharray:none;stroke-opacity:1"
     d="m 90.78961,206.32737 c 0,0 10.52802,17.35417 19.07321,21.90614 9.16387,4.88154 37.86374,-2.72969 51.25,-1.87854 14.92211,0.94879 49.5356,14.42575 49.5356,14.42575"
     id="path2942"
     sodipodi:nodetypes="cssc" />
  <path
     style="fill:none;stroke:#427677;stroke-width:3.7;stroke-linecap:butt;stroke-linejoin:miter;stroke-miterlimit:4;stroke-dasharray:none;stroke-opacity:1"
     d="m 193.08576,161.22779 c 0,0 4.47968,31.19225 13.23903,43.60092 9.12916,12.93255 45.82519,36.79215 45.82519,36.79215"
     id="path2944"
     sodipodi:nodetypes="csc" />
  <path
     style="fill:none;stroke:#427677;stroke-width:3.7;stroke-linecap:butt;stroke-linejoin:miter;stroke-miterlimit:4;stroke-dasharray:none;stroke-opacity:1"
     d="m 315.67532,212.26822 c 0,0 4.39572,10.54226 3.78497,16.20763 -0.83923,7.7848 -11.0639,15.81942 -11.0639,15.81942"
     id="path2946"
     sodipodi:nodetypes="csc" />
  <path
     style="fill:none;stroke:#427677;stroke-width:3.7;stroke-linecap:butt;stroke-linejoin:miter;stroke-miterlimit:4;stroke-dasharray:none;stroke-opacity:1"
     d="m 451.07703,199.8553 c 0,0 -13.64937,21.90886 -25.35625,25.73537 -15.76515,5.15299 -34.3697,-9.83994 -49.64329,-3.37382 -10.71339,4.53555 -25.44893,24.70851 -25.44893,24.70851"
     id="path2948"
     sodipodi:nodetypes="cssc" />
  <g
     filter="url(#editing-cake)"
     id="g73"
     transform="translate(0,217.78889)">
    <g
       transform="translate(-158.00499,108.84)"
       id="g71">
      <path
         d="m 64.8,-39.05 v 4.84 0 q 0,3.65 -0.9,6.52 v 0 0 q -0.9,2.88 -2.44,5.07 v 0 0 q -1.54,2.19 -3.55,3.75 v 0 0 q -2.01,1.56 -4.2,2.55 v 0 0 q -2.19,0.98 -4.43,1.43 v 0 0 q -2.24,0.45 -4.2,0.45 v 0 H 20.96 V -25.1 h 24.12 v 0 q 2.05,-0.17 3.71,-0.84 v 0 0 q 1.66,-0.68 2.85,-1.83 v 0 0 q 1.19,-1.15 1.84,-2.77 v 0 0 q 0.66,-1.62 0.66,-3.67 v 0 -4.84 0 q -0.2,-2.01 -0.86,-3.69 v 0 0 q -0.66,-1.68 -1.78,-2.87 v 0 0 q -1.13,-1.19 -2.73,-1.87 v 0 0 q -1.6,-0.67 -3.69,-0.67 v 0 H 21.04 v 0 q -2.13,0 -3.24,1.11 v 0 0 q -1.11,1.1 -1.11,3.19 v 0 V 0 H 6.03 v -43.85 0 q 0,-4.1 1.5,-6.97 v 0 0 q 1.49,-2.87 3.73,-4.63 v 0 0 q 2.23,-1.77 4.86,-2.57 v 0 0 q 2.62,-0.8 4.84,-0.8 v 0 h 24.12 v 0 q 3.61,0 6.48,0.93 v 0 0 q 2.87,0.92 5.06,2.46 v 0 0 q 2.2,1.54 3.73,3.55 v 0 0 q 1.54,2 2.55,4.2 v 0 0 q 1,2.19 1.45,4.43 v 0 0 q 0.45,2.23 0.45,4.2 z m 46.52,-5.29 v 10.67 h -24 v 0 q -2.17,0 -3.28,1.08 v 0 0 q -1.11,1.09 -1.11,3.18 v 0 V 0 H 72.27 v -29.41 0 q 0,-2.75 0.7,-4.92 v 0 0 q 0.69,-2.17 1.86,-3.84 v 0 0 Q 76,-39.83 77.52,-41 v 0 0 q 1.52,-1.16 3.18,-1.9 v 0 0 q 1.66,-0.74 3.36,-1.09 v 0 0 q 1.7,-0.35 3.18,-0.35 v 0 z m 49.34,14.69 v 14.97 0 q 0,2.21 -0.78,4.77 v 0 0 q -0.78,2.57 -2.52,4.76 v 0 0 q -1.75,2.2 -4.56,3.67 v 0 0 Q 149.99,0 145.97,0 v 0 h -19.23 v 0 q -2.22,0 -4.78,-0.78 v 0 0 Q 119.4,-1.56 117.2,-3.3 v 0 0 q -2.19,-1.74 -3.67,-4.55 v 0 0 q -1.48,-2.81 -1.48,-6.83 v 0 0 q 0,-2.22 0.78,-4.8 v 0 0 q 0.78,-2.59 2.53,-4.78 v 0 0 q 1.74,-2.2 4.55,-3.67 v 0 0 q 2.81,-1.48 6.83,-1.48 v 0 h 19.23 v 10.17 h -19.23 v 0 q -2.18,0 -3.36,1.34 v 0 0 q -1.19,1.33 -1.19,3.3 v 0 0 q 0,2.09 1.37,3.26 v 0 0 q 1.37,1.17 3.26,1.17 v 0 h 19.15 v 0 q 2.18,0 3.37,-1.31 v 0 0 q 1.19,-1.32 1.19,-3.29 v 0 -14.88 0 q 0,-2.1 -1.29,-3.33 v 0 0 q -1.3,-1.23 -3.27,-1.23 v 0 h -23.42 v -10.13 h 23.42 v 0 q 2.22,0 4.78,0.78 v 0 0 q 2.57,0.78 4.76,2.52 v 0 0 q 2.2,1.75 3.67,4.56 v 0 0 q 1.48,2.81 1.48,6.83 z m 51.97,14.68 v 0 0 q 0,2.75 -0.7,4.94 v 0 0 q -0.7,2.2 -1.85,3.86 v 0 0 q -1.15,1.66 -2.66,2.83 v 0 0 q -1.52,1.17 -3.18,1.9 v 0 0 q -1.66,0.74 -3.37,1.09 v 0 0 Q 199.17,0 197.65,0 v 0 h -28.87 v -10.66 h 28.79 v 0 q 2.18,0 3.28,-1.11 v 0 0 q 1.11,-1.11 1.11,-3.2 v 0 0 q -0.2,-4.27 -4.31,-4.27 v 0 h -16.52 v 0 q -3.53,0 -5.99,-1.23 v 0 0 q -2.46,-1.23 -4,-3.07 v 0 0 q -1.54,-1.85 -2.22,-3.98 v 0 0 q -0.67,-2.13 -0.67,-3.98 v 0 0 q 0,-3.57 1.27,-6.01 v 0 0 q 1.27,-2.44 3.2,-3.96 v 0 0 q 1.92,-1.51 4.18,-2.19 v 0 0 q 2.26,-0.68 4.23,-0.68 v 0 h 26.2 v 10.67 h -26.12 v 0 q -0.82,0 -1.29,0.18 v 0 0 q -0.48,0.19 -0.7,0.49 v 0 0 q -0.23,0.31 -0.27,0.66 v 0 0 q -0.04,0.35 -0.04,0.68 v 0 0 q 0.04,0.65 0.25,1.02 v 0 0 q 0.2,0.37 0.51,0.53 v 0 0 q 0.31,0.17 0.7,0.19 v 0 0 q 0.39,0.02 0.76,0.02 v 0 h 16.52 v 0 q 4.11,0 6.98,1.48 v 0 0 q 2.87,1.47 4.63,3.71 v 0 0 q 1.77,2.23 2.57,4.86 v 0 0 q 0.8,2.62 0.8,4.88 z M 247.08,-24.2 272.18,0 H 256.8 l -21.49,-20.75 v 0 q -1.81,-1.64 -1.68,-4.11 v 0 0 q 0.08,-1.14 0.59,-2.15 v 0 0 q 0.51,-1 1.41,-1.7 v 0 l 19.49,-15.71 h 17.06 z M 230.92,-63.08 V 0 h -10.67 v -63.08 z m 91.59,33.43 v 14.97 0 q 0,2.21 -0.78,4.77 v 0 0 q -0.78,2.57 -2.53,4.76 v 0 0 q -1.74,2.2 -4.55,3.67 v 0 0 Q 311.84,0 307.82,0 v 0 h -19.23 v 0 q -2.22,0 -4.78,-0.78 v 0 0 q -2.57,-0.78 -4.76,-2.52 v 0 0 q -2.19,-1.74 -3.67,-4.55 v 0 0 q -1.48,-2.81 -1.48,-6.83 v 0 0 q 0,-2.22 0.78,-4.8 v 0 0 q 0.78,-2.59 2.52,-4.78 v 0 0 q 1.75,-2.2 4.56,-3.67 v 0 0 q 2.81,-1.48 6.83,-1.48 v 0 h 19.23 v 10.17 h -19.23 v 0 q -2.18,0 -3.37,1.34 v 0 0 q -1.19,1.33 -1.19,3.3 v 0 0 q 0,2.09 1.38,3.26 v 0 0 q 1.37,1.17 3.26,1.17 v 0 h 19.15 v 0 q 2.18,0 3.37,-1.31 v 0 0 q 1.19,-1.32 1.19,-3.29 v 0 -14.88 0 q 0,-2.1 -1.3,-3.33 v 0 0 q -1.29,-1.23 -3.26,-1.23 v 0 H 284.4 v -10.13 h 23.42 v 0 q 2.22,0 4.78,0.78 v 0 0 q 2.56,0.78 4.76,2.52 v 0 0 q 2.19,1.75 3.67,4.56 v 0 0 q 1.48,2.81 1.48,6.83 z m -5.79,-38.03 4.51,9.97 -21.41,7.67 -2.83,-6.15 z m 64.03,43.07 V 0 h -10.67 v -24.61 0 q 0,-2.09 -0.71,-3.75 v 0 0 q -0.72,-1.66 -1.95,-2.85 v 0 0 q -1.23,-1.19 -2.89,-1.83 v 0 0 q -1.66,-0.63 -3.59,-0.63 v 0 H 342.28 V 0 h -10.67 v -39.05 0 q 0,-1.1 0.41,-2.07 v 0 0 q 0.41,-0.96 1.15,-1.68 v 0 0 q 0.74,-0.72 1.72,-1.13 v 0 0 q 0.99,-0.41 2.09,-0.41 v 0 h 24.04 v 0 q 2.01,0 4.24,0.45 v 0 0 q 2.24,0.45 4.43,1.46 v 0 0 q 2.2,1 4.19,2.54 v 0 0 q 1.99,1.54 3.53,3.73 v 0 0 q 1.53,2.2 2.44,5.07 v 0 0 q 0.9,2.87 0.9,6.48 z m 20.18,-19.73 V 0 h -10.67 v -44.34 z m 11.97,-23.34 4.52,9.97 -21.41,7.67 -2.83,-6.15 z m 85.44,52.71 v 2.05 0 q 0,1.97 -0.68,4.22 v 0 0 q -0.67,2.26 -2.21,4.19 v 0 0 q -1.54,1.93 -4,3.22 v 0 0 Q 488.99,0 485.42,0 v 0 h -40.48 v 0 q -1.15,0 -2.14,-0.41 v 0 0 q -0.98,-0.41 -1.7,-1.13 v 0 0 q -0.72,-0.72 -1.13,-1.7 v 0 0 q -0.41,-0.98 -0.41,-2.13 v 0 -48.07 0 q 0,-1.11 0.41,-2.1 v 0 0 q 0.41,-0.98 1.13,-1.72 v 0 0 q 0.72,-0.74 1.7,-1.15 v 0 0 q 0.99,-0.41 2.14,-0.41 v 0 h 35.68 v 0 q 1.97,0 4.23,0.7 v 0 0 q 2.25,0.7 4.2,2.24 v 0 0 q 1.95,1.53 3.24,4 v 0 0 q 1.29,2.46 1.29,6.02 v 0 2.01 0 q 0,2.83 -0.94,6.1 v 0 0 q -0.94,3.26 -3.04,6.17 v 0 0 q 1.81,1.11 3.39,2.66 v 0 0 q 1.58,1.56 2.77,3.61 v 0 0 q 1.19,2.05 1.88,4.64 v 0 0 q 0.7,2.58 0.7,5.7 z M 487.68,-13 v -1.97 0 q 0,-2.09 -0.66,-3.75 v 0 0 q -0.66,-1.66 -1.85,-2.85 v 0 0 q -1.19,-1.19 -2.87,-1.83 v 0 0 q -1.68,-0.64 -3.77,-0.64 v 0 h -24.04 v -10.74 h 19.24 v 0 q 2.09,0 3.77,-0.64 v 0 0 q 1.69,-0.63 2.88,-1.82 v 0 0 q 1.18,-1.19 1.82,-2.85 v 0 0 q 0.64,-1.66 0.64,-3.76 v 0 -2.01 0 q 0,-2.29 -2.22,-2.29 v 0 h -30.39 v 37.49 h 35.19 v 0 q 0.29,0 0.7,-0.05 v 0 0 q 0.41,-0.04 0.74,-0.24 v 0 0 q 0.32,-0.21 0.57,-0.7 v 0 0 q 0.25,-0.49 0.25,-1.35 z m 64.51,-16.65 v 14.97 0 q 0,2.21 -0.78,4.77 v 0 0 q -0.78,2.57 -2.52,4.76 v 0 0 q -1.74,2.2 -4.55,3.67 v 0 0 Q 541.53,0 537.51,0 v 0 h -19.24 v 0 q -2.21,0 -4.77,-0.78 v 0 0 q -2.57,-0.78 -4.76,-2.52 v 0 0 q -2.2,-1.74 -3.67,-4.55 v 0 0 q -1.48,-2.81 -1.48,-6.83 v 0 0 q 0,-2.22 0.78,-4.8 v 0 0 q 0.78,-2.59 2.52,-4.78 v 0 0 q 1.74,-2.2 4.55,-3.67 v 0 0 q 2.81,-1.48 6.83,-1.48 v 0 h 19.24 v 10.17 h -19.24 v 0 q -2.17,0 -3.36,1.34 v 0 0 q -1.19,1.33 -1.19,3.3 v 0 0 q 0,2.09 1.37,3.26 v 0 0 q 1.38,1.17 3.27,1.17 v 0 h 19.15 v 0 q 2.17,0 3.36,-1.31 v 0 0 q 1.19,-1.32 1.19,-3.29 v 0 -14.88 0 q 0,-2.1 -1.29,-3.33 v 0 0 q -1.29,-1.23 -3.26,-1.23 v 0 h -23.42 v -10.13 h 23.42 v 0 q 2.21,0 4.78,0.78 v 0 0 q 2.56,0.78 4.76,2.52 v 0 0 q 2.19,1.75 3.67,4.56 v 0 0 q 1.47,2.81 1.47,6.83 z m 28.59,18.99 V 0 h -4.76 v 0 q -2.29,0 -4.9,-0.78 v 0 0 q -2.6,-0.78 -4.86,-2.56 v 0 0 q -2.25,-1.79 -3.73,-4.64 v 0 0 q -1.48,-2.85 -1.48,-6.99 v 0 -48.11 h 10.67 v 48.11 0 q 0,1.97 1.23,3.14 v 0 0 q 1.23,1.17 3.07,1.17 v 0 z m 55.09,-18.75 v 14.44 0 q 0,2.75 -0.7,4.94 v 0 0 q -0.7,2.2 -1.85,3.86 v 0 0 q -1.15,1.66 -2.66,2.83 v 0 0 q -1.52,1.17 -3.18,1.9 v 0 0 q -1.66,0.74 -3.37,1.09 v 0 0 Q 622.41,0 620.89,0 v 0 h -19.23 v 0 q -2.22,0 -4.84,-0.78 v 0 0 q -2.63,-0.78 -4.86,-2.56 v 0 0 q -2.24,-1.79 -3.73,-4.64 v 0 0 q -1.5,-2.85 -1.5,-6.99 v 0 -14.44 0 q 0,-4.1 1.5,-6.95 v 0 0 q 1.49,-2.85 3.73,-4.64 v 0 0 q 2.23,-1.78 4.86,-2.56 v 0 0 q 2.62,-0.78 4.84,-0.78 v 0 h 19.23 v 0 q 4.11,0 6.98,1.48 v 0 0 q 2.87,1.48 4.63,3.71 v 0 0 q 1.77,2.24 2.57,4.86 v 0 0 q 0.8,2.63 0.8,4.88 z m -10.67,14.44 v -14.36 0 q 0,-2.21 -1.11,-3.28 v 0 0 q -1.1,-1.06 -3.2,-1.06 v 0 h -19.15 v 0 q -2.13,0 -3.24,1.08 v 0 0 q -1.11,1.09 -1.11,3.18 v 0 14.44 0 q 0,2.09 1.11,3.2 v 0 0 q 1.11,1.11 3.24,1.11 v 0 h 19.15 v 0 q 2.18,0 3.24,-1.11 v 0 0 q 1.07,-1.11 1.07,-3.2 z m 3.36,-52.71 4.52,9.97 -21.41,7.67 -2.83,-6.15 z m 65.51,43.07 V 0 H 683.4 v -24.61 0 q 0,-2.09 -0.72,-3.75 v 0 0 q -0.71,-1.66 -1.94,-2.85 v 0 0 q -1.23,-1.19 -2.9,-1.83 v 0 0 q -1.66,-0.63 -3.58,-0.63 v 0 H 655.59 V 0 h -10.66 v -39.05 0 q 0,-1.1 0.41,-2.07 v 0 0 q 0.41,-0.96 1.15,-1.68 v 0 0 q 0.74,-0.72 1.72,-1.13 v 0 0 q 0.99,-0.41 2.09,-0.41 v 0 h 24.04 v 0 q 2.01,0 4.24,0.45 v 0 0 q 2.24,0.45 4.43,1.46 v 0 0 q 2.2,1 4.19,2.54 v 0 0 q 1.99,1.54 3.52,3.73 v 0 0 q 1.54,2.2 2.44,5.07 v 0 0 q 0.91,2.87 0.91,6.48 z m 36.34,0.41 25.1,24.2 h -15.38 l -21.5,-20.75 v 0 q -1.8,-1.64 -1.68,-4.11 v 0 0 q 0.09,-1.14 0.6,-2.15 v 0 0 q 0.51,-1 1.41,-1.7 v 0 l 19.49,-15.71 h 17.06 z M 714.25,-63.08 V 0 h -10.67 v -63.08 z m 95.73,18.74 v 38.97 0 q 0,1.15 -0.41,2.13 v 0 0 q -0.41,0.98 -1.13,1.7 v 0 0 q -0.72,0.72 -1.68,1.13 v 0 0 Q 805.79,0 804.69,0 v 0 h -24.12 v 0 q -1.97,0 -4.21,-0.45 v 0 0 q -2.23,-0.45 -4.4,-1.46 v 0 0 q -2.18,-1 -4.21,-2.54 v 0 0 q -2.03,-1.54 -3.55,-3.73 v 0 0 q -1.51,-2.2 -2.44,-5.07 v 0 0 q -0.92,-2.87 -0.92,-6.48 v 0 -24.61 h 10.66 v 24.61 0 q 0,2.09 0.72,3.75 v 0 0 q 0.72,1.67 1.95,2.85 v 0 0 q 1.23,1.19 2.89,1.83 v 0 0 q 1.66,0.64 3.59,0.64 v 0 h 18.66 v -33.68 z m -36.22,-11.2 v 0 0 q 0,-2 0.88,-3.79 v 0 0 q 0.88,-1.78 2.44,-3.12 v 0 0 q 1.56,-1.33 3.75,-2.11 v 0 0 q 2.2,-0.78 4.87,-0.78 v 0 0 q 2.91,0 5.14,0.78 v 0 0 q 2.24,0.78 3.74,2.11 v 0 0 q 1.49,1.34 2.25,3.12 v 0 0 q 0.76,1.79 0.76,3.79 v 0 0 q 0,2.01 -0.82,3.8 v 0 0 q -0.82,1.78 -2.36,3.14 v 0 0 q -1.54,1.35 -3.75,2.13 v 0 0 q -2.22,0.78 -4.96,0.78 v 0 0 q -2.83,0 -5.05,-0.78 v 0 0 q -2.21,-0.78 -3.75,-2.13 v 0 0 q -1.54,-1.36 -2.34,-3.14 v 0 0 q -0.8,-1.79 -0.8,-3.8 z m 7.87,0 v 0 0 q 0,1.69 1.05,2.83 v 0 0 q 1.05,1.15 3.02,1.15 v 0 0 q 1.96,0 2.95,-1.15 v 0 0 q 0.98,-1.14 0.98,-2.83 v 0 0 q 0,-1.64 -0.98,-2.78 v 0 0 q -0.99,-1.15 -2.95,-1.15 v 0 0 q -1.97,0 -3.02,1.15 v 0 0 q -1.05,1.14 -1.05,2.78 z"
         fill="#00caff"
         id="path69" />
    </g>
  </g>
  <style
     id="style75">text {
  font-size: 64px;
  font-family: Arial Black;
  dominant-baseline: central;
  text-anchor: middle;
}</style>
  <ellipse
     style="fill:#ff6fd1;stroke:url(#linearGradient2901);stroke-width:4.8014;stroke-miterlimit:4;stroke-dasharray:none"
     id="path918"
     cx="-3.8461044"
     cy="194.06958"
     rx="40.105244"
     ry="46.898861"
     transform="rotate(-22.470206)" />
  <ellipse
     style="fill:#6fff7e;fill-opacity:1;stroke:url(#linearGradient2903);stroke-width:5.41579;stroke-miterlimit:4;stroke-dasharray:none;stroke-opacity:1"
     id="path918-3"
     cx="197.85875"
     cy="122.57449"
     rx="45.237099"
     ry="52.900028" />
  <ellipse
     style="fill:#6fa4ff;fill-opacity:1;stroke:url(#linearGradient2905);stroke-width:4.8014;stroke-miterlimit:4;stroke-dasharray:none;stroke-opacity:1"
     id="path918-3-0"
     cx="337.17981"
     cy="147.01773"
     rx="40.105244"
     ry="46.898861"
     transform="rotate(4.7906305)" />
  <ellipse
     style="fill:#fffa6f;fill-opacity:1;stroke:url(#linearGradient2907);stroke-width:5.36853;stroke-miterlimit:4;stroke-dasharray:none;stroke-opacity:1"
     id="path918-3-0-2"
     cx="480.18112"
     cy="58.832897"
     rx="44.842342"
     ry="52.438396"
     transform="rotate(12.320553)" />
</svg>
